<?xml version="1.0" encoding="UTF-8" standalone="no"?>
<svg
   width="394.72"
   height="32.113"
   viewBox="0 0 394.72 32.113"
   version="1.1"
   id="svg88"
   sodipodi:docname="text-to-svg-1765754091750.svg"
   inkscape:version="1.2.2 (b0a8486541, 2022-12-01)"
   xmlns:inkscape="http://www.inkscape.org/namespaces/inkscape"
   xmlns:sodipodi="http://sodipodi.sourceforge.net/DTD/sodipodi-0.dtd"
   xmlns="http://www.w3.org/2000/svg"
   xmlns:svg="http://www.w3.org/2000/svg">
  <defs
     id="defs92" />
  <sodipodi:namedview
     id="namedview90"
     pagecolor="#ffffff"
     bordercolor="#000000"
     borderopacity="0.25"
     inkscape:showpageshadow="2"
     inkscape:pageopacity="0.0"
     inkscape:pagecheckerboard="0"
     inkscape:deskcolor="#d1d1d1"
     showgrid="false"
     inkscape:zoom="3.4074787"
     inkscape:cx="220.83777"
     inkscape:cy="19.809368"
     inkscape:window-width="1728"
     inkscape:window-height="1011"
     inkscape:window-x="0"
     inkscape:window-y="0"
     inkscape:window-maximized="1"
     inkscape:current-layer="svg88" />
  <g
     id="svgGroup"
     stroke-linecap="round"
     fill-rule="nonzero"
     font-size="9pt"
     stroke="#d79fc7"
     stroke-width="0.5"
     fill="#d79fc7"
     style="stroke:#d79fc7;stroke-width:0.5;fill:#d79fc7">
    <path
       d="M 18.144 24.513 L 0 24.513 L 0 22.945 L 0.864 22.945 Q 1.472 22.945 1.952 22.785 Q 2.432 22.625 2.72 22.193 Q 3.008 21.761 3.008 21.025 L 3.008 5.313 Q 3.008 4.385 2.704 3.953 Q 2.4 3.521 1.92 3.377 Q 1.44 3.233 0.832 3.233 L 0 3.233 L 0 1.665 L 17.152 1.665 L 17.28 7.457 L 15.264 7.457 L 15.104 5.985 Q 15.04 5.217 14.768 4.673 Q 14.496 4.129 13.952 3.809 Q 13.408 3.489 12.544 3.489 L 7.36 3.489 L 7.36 11.681 L 15.008 11.681 L 15.008 13.473 L 7.36 13.473 L 7.36 22.689 L 13.376 22.689 Q 14.272 22.689 14.832 22.353 Q 15.392 22.017 15.712 21.457 Q 16.032 20.897 16.128 20.193 L 16.352 18.721 L 18.368 18.721 L 18.144 24.513 Z"
       id="0" />
    <path
       d="M 29.792 24.513 L 20.032 24.513 L 20.032 22.945 L 20.416 22.945 Q 21.088 22.945 21.632 22.769 Q 22.176 22.593 22.496 22.097 Q 22.816 21.601 22.816 20.673 L 22.816 3.809 Q 22.816 2.881 22.432 2.449 Q 22.048 2.017 21.504 1.889 Q 20.96 1.761 20.416 1.761 L 20.032 1.761 L 20.032 0.193 L 26.976 0.193 L 26.976 20.673 Q 26.976 21.601 27.296 22.097 Q 27.616 22.593 28.176 22.769 Q 28.736 22.945 29.376 22.945 L 29.792 22.945 L 29.792 24.513 Z"
       id="1" />
    <path
       d="M 40.64 24.513 L 30.88 24.513 L 30.88 22.945 L 31.296 22.945 Q 31.968 22.945 32.496 22.769 Q 33.024 22.593 33.36 22.113 Q 33.696 21.633 33.696 20.737 L 33.696 11.073 Q 33.696 10.177 33.36 9.713 Q 33.024 9.249 32.48 9.089 Q 31.936 8.929 31.296 8.929 L 31.008 8.929 L 31.008 7.361 L 37.856 7.361 L 37.856 20.673 Q 37.856 21.601 38.176 22.097 Q 38.496 22.593 39.04 22.769 Q 39.584 22.945 40.256 22.945 L 40.64 22.945 L 40.64 24.513 Z M 35.616 4.353 Q 34.624 4.353 33.936 3.825 Q 33.248 3.297 33.248 2.177 Q 33.248 0.993 33.936 0.497 Q 34.624 0.001 35.616 0.001 Q 36.608 0.001 37.312 0.497 Q 38.016 0.993 38.016 2.177 Q 38.016 3.297 37.312 3.825 Q 36.608 4.353 35.616 4.353 Z"
       id="2" />
    <path
       d="M 48.256 24.833 Q 46.272 24.833 44.96 24.401 Q 43.648 23.969 43.008 23.169 Q 42.368 22.369 42.368 21.281 Q 42.368 20.417 42.752 19.905 Q 43.136 19.393 43.712 19.185 Q 44.288 18.977 44.864 18.977 Q 44.864 20.833 45.712 21.937 Q 46.56 23.041 48.416 23.041 Q 50.048 23.041 50.864 22.321 Q 51.68 21.601 51.68 20.513 Q 51.68 19.777 51.312 19.297 Q 50.944 18.817 50.096 18.369 Q 49.248 17.921 47.776 17.377 Q 46.016 16.705 44.864 16.001 Q 43.712 15.297 43.136 14.321 Q 42.56 13.345 42.56 11.873 Q 42.56 9.473 44.368 8.241 Q 46.176 7.009 49.12 7.009 Q 50.912 7.009 52.048 7.441 Q 53.184 7.873 53.744 8.545 Q 54.304 9.217 54.304 10.017 Q 54.304 10.977 53.616 11.521 Q 52.928 12.065 51.584 12.065 Q 51.584 10.497 50.816 9.617 Q 50.048 8.737 48.704 8.737 Q 47.296 8.737 46.608 9.345 Q 45.92 9.953 45.92 10.945 Q 45.92 12.065 46.784 12.673 Q 47.648 13.281 49.824 14.081 Q 51.552 14.721 52.704 15.409 Q 53.856 16.097 54.432 17.057 Q 55.008 18.017 55.008 19.489 Q 55.008 22.049 53.216 23.441 Q 51.424 24.833 48.256 24.833 Z"
       id="3" />
    <path
       d="M 64.864 14.465 L 67.52 14.369 L 67.52 12.545 Q 67.52 11.393 67.328 10.561 Q 67.136 9.729 66.592 9.265 Q 66.048 8.801 64.992 8.801 Q 64.032 8.801 63.488 9.233 Q 62.944 9.665 62.736 10.433 Q 62.528 11.201 62.528 12.257 Q 60.768 12.257 59.888 11.777 Q 59.008 11.297 59.008 10.177 Q 59.008 9.025 59.856 8.321 Q 60.704 7.617 62.144 7.297 Q 63.584 6.977 65.28 6.977 Q 68.48 6.977 70.08 8.209 Q 71.68 9.441 71.68 12.449 L 71.68 20.673 Q 71.68 21.569 71.872 22.049 Q 72.064 22.529 72.496 22.737 Q 72.928 22.945 73.632 22.945 L 73.728 22.945 L 73.728 24.513 L 68.384 24.513 L 67.776 22.113 L 67.52 22.113 Q 66.816 22.977 66.192 23.585 Q 65.568 24.193 64.752 24.513 Q 63.936 24.833 62.656 24.833 Q 61.248 24.833 60.112 24.273 Q 58.976 23.713 58.32 22.561 Q 57.664 21.409 57.664 19.649 Q 57.664 17.057 59.456 15.825 A 9.775 9.775 0 0 1 64.419 14.486 A 21.403 21.403 0 0 1 64.864 14.465 Z M 67.52 18.401 L 67.52 15.937 L 65.856 16.033 Q 64.352 16.097 63.504 16.545 Q 62.656 16.993 62.288 17.793 Q 61.92 18.593 61.92 19.777 Q 61.92 20.737 62.16 21.361 Q 62.4 21.985 62.864 22.305 Q 63.328 22.625 64.032 22.625 Q 65.088 22.625 65.872 22.113 Q 66.656 21.601 67.088 20.641 Q 67.52 19.681 67.52 18.401 Z"
       id="4" />
    <path
       d="M 82.208 22.017 L 81.984 22.017 L 81.184 24.513 L 75.456 24.513 L 75.456 22.945 L 75.712 22.945 Q 76.352 22.945 76.928 22.785 Q 77.504 22.625 77.856 22.145 Q 78.208 21.665 78.208 20.673 L 78.208 3.905 Q 78.208 2.977 77.856 2.513 Q 77.504 2.049 76.928 1.905 Q 76.352 1.761 75.68 1.761 L 75.456 1.761 L 75.456 0.193 L 82.368 0.193 L 82.368 5.825 Q 82.368 6.369 82.352 7.153 Q 82.336 7.937 82.288 8.673 Q 82.24 9.409 82.208 9.793 L 82.368 9.793 Q 83.072 8.545 84.224 7.777 Q 85.376 7.009 87.2 7.009 Q 90.336 7.009 92 9.137 Q 93.664 11.265 93.664 15.873 Q 93.664 18.977 92.912 20.961 Q 92.16 22.945 90.704 23.889 Q 89.248 24.833 87.104 24.833 Q 85.248 24.833 84.08 24.049 Q 82.912 23.265 82.208 22.017 Z M 86.08 22.561 Q 87.872 22.561 88.64 20.833 A 12.413 12.413 0 0 0 89.407 16.044 A 27.122 27.122 0 0 0 89.408 15.841 A 12.989 12.989 0 0 0 88.739 11.124 A 5.064 5.064 0 0 0 88.64 10.897 Q 87.872 9.249 86.048 9.249 Q 83.936 9.249 83.152 10.881 A 11.246 11.246 0 0 0 82.373 15.359 A 27.1 27.1 0 0 0 82.368 15.873 Q 82.368 18.017 82.704 19.521 Q 83.04 21.025 83.856 21.793 Q 84.672 22.561 86.08 22.561 Z"
       id="5" />
    <path
       d="M 111.648 14.657 L 111.648 16.257 L 101.12 16.257 A 8.671 8.671 0 0 0 102.196 20.862 A 3.821 3.821 0 0 0 102.336 21.057 Q 103.488 22.561 105.696 22.561 Q 107.328 22.561 108.432 21.825 Q 109.536 21.089 110.08 20.097 Q 110.464 20.193 110.72 20.529 A 1.359 1.359 0 0 1 110.976 21.377 Q 110.976 22.113 110.336 22.929 Q 109.696 23.745 108.336 24.289 Q 106.976 24.833 104.832 24.833 Q 100.96 24.833 98.912 22.529 Q 96.864 20.225 96.864 16.033 A 10.589 10.589 0 0 1 98.507 9.714 A 6.384 6.384 0 0 1 98.864 9.265 Q 100.864 6.977 104.48 6.977 Q 107.84 6.977 109.744 8.913 Q 111.648 10.849 111.648 14.657 Z M 101.184 14.305 L 107.392 14.305 Q 107.392 11.841 106.736 10.385 Q 106.08 8.929 104.512 8.929 Q 103.008 8.929 102.144 10.305 Q 101.28 11.681 101.184 14.305 Z"
       id="6" />
    <path
       d="M 116.16 19.809 L 116.16 9.409 L 113.76 9.409 L 113.76 7.905 Q 114.624 7.905 115.392 7.569 Q 116.16 7.233 116.672 6.689 Q 117.184 6.145 117.552 5.345 Q 117.92 4.545 118.144 3.393 L 120.352 3.393 L 120.352 7.361 L 124.48 7.361 L 124.48 9.409 L 120.352 9.409 L 120.352 19.649 Q 120.352 21.153 120.912 21.857 Q 121.472 22.561 122.592 22.561 Q 123.168 22.561 123.712 22.497 Q 124.256 22.433 124.768 22.305 L 124.768 24.129 Q 124.288 24.353 123.28 24.593 Q 122.272 24.833 121.088 24.833 Q 118.624 24.833 117.392 23.713 Q 116.16 22.593 116.16 19.809 Z"
       id="7" />
    <path
       d="M 135.424 24.513 L 126.048 24.513 L 126.048 22.945 L 126.272 22.945 Q 126.976 22.945 127.52 22.801 Q 128.064 22.657 128.4 22.161 Q 128.736 21.665 128.736 20.705 L 128.736 3.809 Q 128.736 2.881 128.352 2.449 Q 127.968 2.017 127.424 1.889 Q 126.88 1.761 126.336 1.761 L 125.984 1.761 L 125.984 0.193 L 132.896 0.193 L 132.896 6.273 Q 132.896 6.977 132.88 7.681 Q 132.864 8.385 132.832 8.929 Q 132.8 9.473 132.768 9.697 L 132.96 9.697 Q 133.408 8.865 134.048 8.257 Q 134.688 7.649 135.6 7.313 Q 136.512 6.977 137.696 6.977 Q 140.416 6.977 141.792 8.449 A 6.78 6.78 0 0 1 143.168 13.173 A 15.605 15.605 0 0 1 143.168 13.185 L 143.168 20.673 Q 143.168 21.665 143.44 22.145 Q 143.712 22.625 144.224 22.785 Q 144.736 22.945 145.44 22.945 L 145.536 22.945 L 145.536 24.513 L 139.008 24.513 L 139.008 13.793 Q 139.008 11.713 138.368 10.577 Q 137.728 9.441 136.096 9.441 Q 134.944 9.441 134.24 10.113 Q 133.536 10.785 133.232 11.937 Q 132.928 13.089 132.928 14.497 L 132.928 20.833 Q 132.928 21.761 133.232 22.209 Q 133.536 22.657 134.064 22.801 Q 134.592 22.945 135.296 22.945 L 135.424 22.945 L 135.424 24.513 Z"
       id="8" />
    <path
       d="M 163.36 24.513 L 157.504 4.929 Q 157.312 4.257 157.024 3.889 Q 156.736 3.521 156.304 3.377 Q 155.872 3.233 155.232 3.233 L 154.816 3.233 L 154.816 1.665 L 164.8 1.665 L 164.8 3.233 L 164.064 3.233 Q 163.104 3.233 162.624 3.601 Q 162.144 3.969 162.144 4.769 Q 162.144 5.025 162.24 5.457 Q 162.336 5.889 162.432 6.273 L 164.896 14.753 Q 165.152 15.617 165.408 16.577 Q 165.664 17.537 165.872 18.465 Q 166.08 19.393 166.176 20.129 Q 166.432 19.009 166.704 17.889 Q 166.976 16.769 167.328 15.585 L 171.392 1.889 L 173.696 1.889 L 177.952 14.721 Q 178.464 16.257 178.864 17.745 Q 179.264 19.233 179.456 20.161 Q 179.616 19.393 179.824 18.465 Q 180.032 17.537 180.256 16.529 Q 180.48 15.521 180.736 14.497 L 182.848 6.465 Q 182.944 6.081 183.056 5.553 Q 183.168 5.025 183.168 4.769 Q 183.168 3.937 182.656 3.585 Q 182.144 3.233 181.088 3.233 L 180.352 3.233 L 180.352 1.665 L 188.512 1.665 L 188.512 3.233 L 187.904 3.233 Q 187.296 3.233 186.848 3.409 Q 186.4 3.585 186.08 4.129 Q 185.76 4.673 185.472 5.729 L 180.352 24.513 L 176.992 24.513 L 171.68 8.385 L 166.944 24.513 L 163.36 24.513 Z"
       id="10"
       style="fill:#56565e;fill-opacity:1;stroke:#56565e;stroke-opacity:1" />
    <path
       d="M 204.992 14.657 L 204.992 16.257 L 194.464 16.257 A 8.671 8.671 0 0 0 195.54 20.862 A 3.821 3.821 0 0 0 195.68 21.057 Q 196.832 22.561 199.04 22.561 Q 200.672 22.561 201.776 21.825 Q 202.88 21.089 203.424 20.097 Q 203.808 20.193 204.064 20.529 A 1.359 1.359 0 0 1 204.32 21.377 Q 204.32 22.113 203.68 22.929 Q 203.04 23.745 201.68 24.289 Q 200.32 24.833 198.176 24.833 Q 194.304 24.833 192.256 22.529 Q 190.208 20.225 190.208 16.033 A 10.589 10.589 0 0 1 191.851 9.714 A 6.384 6.384 0 0 1 192.208 9.265 Q 194.208 6.977 197.824 6.977 Q 201.184 6.977 203.088 8.913 Q 204.992 10.849 204.992 14.657 Z M 194.528 14.305 L 200.736 14.305 Q 200.736 11.841 200.08 10.385 Q 199.424 8.929 197.856 8.929 Q 196.352 8.929 195.488 10.305 Q 194.624 11.681 194.528 14.305 Z"
       id="11"
       style="fill:#56565e;fill-opacity:1;stroke:#56565e;stroke-opacity:1" />
    <path
       d="M 216.576 24.513 L 207.2 24.513 L 207.2 22.945 L 207.424 22.945 Q 208.16 22.945 208.704 22.801 Q 209.248 22.657 209.568 22.161 Q 209.888 21.665 209.888 20.705 L 209.888 11.041 Q 209.888 10.113 209.584 9.665 Q 209.28 9.217 208.752 9.073 Q 208.224 8.929 207.52 8.929 L 207.36 8.929 L 207.36 7.361 L 213.504 7.361 L 213.92 9.761 L 214.08 9.761 Q 214.944 8.257 216.112 7.617 Q 217.28 6.977 219.008 6.977 Q 221.568 6.977 222.944 8.449 A 6.78 6.78 0 0 1 224.32 13.173 A 15.605 15.605 0 0 1 224.32 13.185 L 224.32 20.673 Q 224.32 21.665 224.576 22.145 Q 224.832 22.625 225.328 22.785 Q 225.824 22.945 226.528 22.945 L 226.688 22.945 L 226.688 24.513 L 220.16 24.513 L 220.16 13.793 Q 220.16 11.713 219.536 10.577 Q 218.912 9.441 217.28 9.441 Q 216.096 9.441 215.376 10.145 Q 214.656 10.849 214.352 12.001 Q 214.048 13.153 214.048 14.497 L 214.048 20.833 Q 214.048 21.761 214.352 22.209 Q 214.656 22.657 215.184 22.801 Q 215.712 22.945 216.416 22.945 L 216.576 22.945 L 216.576 24.513 Z"
       id="12"
       style="fill:#56565e;fill-opacity:1;stroke:#56565e;stroke-opacity:1" />
    <path
       d="M 234.496 21.185 L 238.208 21.185 Q 240.256 21.185 241.536 21.777 Q 242.816 22.369 243.424 23.457 Q 244.032 24.545 244.032 26.017 Q 244.032 28.833 241.824 30.465 A 10.078 10.078 0 0 1 236.412 32.058 A 22.698 22.698 0 0 1 235.04 32.097 A 10.53 10.53 0 0 1 229.925 31.088 A 4.886 4.886 0 0 1 229.664 30.929 Q 227.872 29.761 227.872 27.617 Q 227.872 26.465 228.432 25.633 Q 228.992 24.801 229.936 24.321 Q 230.88 23.841 232.064 23.713 Q 231.296 23.393 230.624 22.737 Q 229.952 22.081 229.952 20.993 Q 229.952 20.001 230.608 19.249 Q 231.264 18.497 232.512 17.825 Q 231.04 17.281 230.16 16.001 Q 229.28 14.721 229.28 12.897 Q 229.28 10.113 230.88 8.545 Q 232.48 6.977 235.808 6.977 Q 237.024 6.977 238.016 7.249 Q 239.008 7.521 239.616 7.937 Q 240.032 7.489 240.512 7.089 Q 240.992 6.689 241.6 6.417 Q 242.208 6.145 242.944 6.145 Q 243.968 6.145 244.48 6.673 Q 244.992 7.201 244.992 7.937 Q 244.992 8.673 244.544 9.217 Q 244.096 9.761 243.008 9.761 Q 243.008 9.217 242.72 8.865 Q 242.432 8.513 241.92 8.513 Q 241.536 8.513 241.232 8.609 Q 240.928 8.705 240.672 8.865 Q 241.312 9.505 241.744 10.449 Q 242.176 11.393 242.176 12.769 Q 242.176 15.233 240.624 16.833 Q 239.072 18.433 235.808 18.433 Q 235.456 18.433 234.912 18.385 Q 234.368 18.337 234.048 18.273 Q 233.568 18.529 233.152 18.993 Q 232.736 19.457 232.736 20.097 Q 232.736 20.641 233.12 20.913 Q 233.504 21.185 234.496 21.185 Z M 237.792 24.769 L 234.304 24.769 Q 233.568 24.769 232.864 24.993 Q 232.16 25.217 231.68 25.809 Q 231.2 26.401 231.2 27.521 Q 231.2 28.353 231.6 28.993 Q 232 29.633 232.864 29.985 Q 233.728 30.337 235.104 30.337 Q 237.152 30.337 238.352 29.905 Q 239.552 29.473 240.096 28.705 Q 240.64 27.937 240.64 26.913 Q 240.64 25.761 239.936 25.265 Q 239.232 24.769 237.792 24.769 Z M 235.744 16.673 Q 236.736 16.673 237.28 16.241 Q 237.824 15.809 238.064 14.929 Q 238.304 14.049 238.304 12.833 Q 238.304 11.553 238.064 10.641 Q 237.824 9.729 237.264 9.249 Q 236.704 8.769 235.712 8.769 Q 234.752 8.769 234.176 9.265 Q 233.6 9.761 233.36 10.673 Q 233.12 11.585 233.12 12.865 Q 233.12 14.689 233.696 15.681 Q 234.272 16.673 235.744 16.673 Z"
       id="13"
       style="fill:#56565e;fill-opacity:1;stroke:#56565e;stroke-opacity:1" />
    <path
       d="M 261.6 14.657 L 261.6 16.257 L 251.072 16.257 A 8.671 8.671 0 0 0 252.148 20.862 A 3.821 3.821 0 0 0 252.288 21.057 Q 253.44 22.561 255.648 22.561 Q 257.28 22.561 258.384 21.825 Q 259.488 21.089 260.032 20.097 Q 260.416 20.193 260.672 20.529 A 1.359 1.359 0 0 1 260.928 21.377 Q 260.928 22.113 260.288 22.929 Q 259.648 23.745 258.288 24.289 Q 256.928 24.833 254.784 24.833 Q 250.912 24.833 248.864 22.529 Q 246.816 20.225 246.816 16.033 A 10.589 10.589 0 0 1 248.459 9.714 A 6.384 6.384 0 0 1 248.816 9.265 Q 250.816 6.977 254.432 6.977 Q 257.792 6.977 259.696 8.913 Q 261.6 10.849 261.6 14.657 Z M 251.136 14.305 L 257.344 14.305 Q 257.344 11.841 256.688 10.385 Q 256.032 8.929 254.464 8.929 Q 252.96 8.929 252.096 10.305 Q 251.232 11.681 251.136 14.305 Z"
       id="14"
       style="fill:#56565e;fill-opacity:1;stroke:#56565e;stroke-opacity:1" />
    <path
       d="M 274.016 24.513 L 263.872 24.513 L 263.872 22.945 L 263.968 22.945 Q 264.704 22.945 265.264 22.785 Q 265.824 22.625 266.144 22.129 Q 266.464 21.633 266.464 20.641 L 266.464 11.105 Q 266.464 10.145 266.16 9.681 Q 265.856 9.217 265.312 9.073 Q 264.768 8.929 264.064 8.929 L 263.968 8.929 L 263.968 7.361 L 269.792 7.361 L 270.432 10.465 L 270.592 10.465 Q 271.072 9.409 271.632 8.625 Q 272.192 7.841 273.024 7.425 Q 273.856 7.009 275.232 7.009 Q 277.024 7.009 277.856 7.729 Q 278.688 8.449 278.688 9.633 Q 278.688 10.913 277.776 11.601 Q 276.864 12.289 275.072 12.289 Q 275.072 11.393 274.944 10.833 Q 274.816 10.273 274.464 9.985 Q 274.112 9.697 273.504 9.697 Q 272.704 9.697 272.16 10.289 Q 271.616 10.881 271.296 11.841 Q 270.976 12.801 270.816 13.873 Q 270.656 14.945 270.656 15.873 L 270.656 20.801 Q 270.656 21.729 270.976 22.193 Q 271.296 22.657 271.84 22.801 Q 272.384 22.945 273.024 22.945 L 274.016 22.945 L 274.016 24.513 Z"
       id="15"
       style="fill:#56565e;fill-opacity:1;stroke:#56565e;stroke-opacity:1" />
    <path
       d="M 288.288 17.281 L 279.968 17.281 L 279.968 14.305 L 288.288 14.305 L 288.288 17.281 Z"
       id="16"
       style="fill:#56565e;fill-opacity:1;stroke:#56565e;stroke-opacity:1" />
    <path
       d="M 297.408 24.833 Q 295.488 24.833 294.128 24.465 Q 292.768 24.097 291.936 23.457 Q 291.104 22.817 290.72 22.001 Q 290.336 21.185 290.336 20.353 Q 290.336 19.425 290.736 18.833 Q 291.136 18.241 291.808 17.969 Q 292.48 17.697 293.344 17.697 Q 293.408 19.297 293.952 20.513 Q 294.496 21.729 295.488 22.385 Q 296.48 23.041 297.824 23.041 Q 299.808 23.041 300.912 22.033 Q 302.016 21.025 302.016 19.361 Q 302.016 18.241 301.472 17.457 Q 300.928 16.673 299.792 15.985 Q 298.656 15.297 296.832 14.561 Q 294.688 13.665 293.36 12.657 Q 292.032 11.649 291.424 10.353 Q 290.816 9.057 290.816 7.425 Q 290.816 5.505 291.808 4.161 Q 292.8 2.817 294.528 2.081 Q 296.256 1.345 298.4 1.345 Q 300.576 1.345 302.016 1.889 Q 303.456 2.433 304.192 3.281 Q 304.928 4.129 304.928 5.089 Q 304.928 6.177 304.112 6.817 Q 303.296 7.457 301.632 7.457 Q 301.632 6.433 301.264 5.441 Q 300.896 4.449 300.112 3.809 Q 299.328 3.169 298.048 3.169 Q 296.448 3.169 295.488 4.001 Q 294.528 4.833 294.528 6.369 Q 294.528 7.425 294.976 8.225 Q 295.424 9.025 296.576 9.745 Q 297.728 10.465 299.744 11.329 Q 301.824 12.161 303.168 13.137 Q 304.512 14.113 305.168 15.329 Q 305.824 16.545 305.824 18.145 Q 305.824 20.225 304.8 21.713 Q 303.776 23.201 301.872 24.017 Q 299.968 24.833 297.408 24.833 Z"
       id="17"
       style="fill:#56565e;fill-opacity:1;stroke:#56565e;stroke-opacity:1" />
    <path
       d="M 310.24 19.809 L 310.24 9.409 L 307.84 9.409 L 307.84 7.905 Q 308.704 7.905 309.472 7.569 Q 310.24 7.233 310.752 6.689 Q 311.264 6.145 311.632 5.345 Q 312 4.545 312.224 3.393 L 314.432 3.393 L 314.432 7.361 L 318.56 7.361 L 318.56 9.409 L 314.432 9.409 L 314.432 19.649 Q 314.432 21.153 314.992 21.857 Q 315.552 22.561 316.672 22.561 Q 317.248 22.561 317.792 22.497 Q 318.336 22.433 318.848 22.305 L 318.848 24.129 Q 318.368 24.353 317.36 24.593 Q 316.352 24.833 315.168 24.833 Q 312.704 24.833 311.472 23.713 Q 310.24 22.593 310.24 19.809 Z"
       id="18"
       style="fill:#56565e;fill-opacity:1;stroke:#56565e;stroke-opacity:1" />
    <path
       d="M 329.888 24.513 L 320.128 24.513 L 320.128 22.945 L 320.544 22.945 Q 321.216 22.945 321.744 22.769 Q 322.272 22.593 322.608 22.113 Q 322.944 21.633 322.944 20.737 L 322.944 11.073 Q 322.944 10.177 322.608 9.713 Q 322.272 9.249 321.728 9.089 Q 321.184 8.929 320.544 8.929 L 320.256 8.929 L 320.256 7.361 L 327.104 7.361 L 327.104 20.673 Q 327.104 21.601 327.424 22.097 Q 327.744 22.593 328.288 22.769 Q 328.832 22.945 329.504 22.945 L 329.888 22.945 L 329.888 24.513 Z M 324.864 4.353 Q 323.872 4.353 323.184 3.825 Q 322.496 3.297 322.496 2.177 Q 322.496 0.993 323.184 0.497 Q 323.872 0.001 324.864 0.001 Q 325.856 0.001 326.56 0.497 Q 327.264 0.993 327.264 2.177 Q 327.264 3.297 326.56 3.825 Q 325.856 4.353 324.864 4.353 Z"
       id="19"
       style="fill:#56565e;fill-opacity:1;stroke:#56565e;stroke-opacity:1" />
    <path
       d="M 339.712 24.833 Q 337.44 24.833 335.696 23.969 Q 333.952 23.105 332.976 21.169 Q 332 19.233 332 16.001 Q 332 12.577 333.008 10.609 Q 334.016 8.641 335.728 7.809 Q 337.44 6.977 339.584 6.977 Q 341.376 6.977 342.736 7.393 Q 344.096 7.809 344.864 8.545 Q 345.632 9.281 345.632 10.305 Q 345.632 11.009 345.296 11.569 Q 344.96 12.129 344.176 12.449 Q 343.392 12.769 341.984 12.769 Q 341.984 11.681 341.776 10.785 Q 341.568 9.889 341.072 9.345 Q 340.576 8.801 339.648 8.801 Q 338.624 8.801 337.856 9.425 Q 337.088 10.049 336.672 11.617 Q 336.256 13.185 336.256 15.969 Q 336.256 18.177 336.688 19.649 Q 337.12 21.121 338.032 21.841 Q 338.944 22.561 340.416 22.561 Q 341.504 22.561 342.384 22.241 Q 343.264 21.921 343.92 21.345 Q 344.576 20.769 344.928 20.097 Q 345.28 20.321 345.44 20.673 Q 345.6 21.025 345.6 21.473 Q 345.6 22.241 344.976 23.025 Q 344.352 23.809 343.04 24.321 Q 341.728 24.833 339.712 24.833 Z"
       id="20"
       style="fill:#56565e;fill-opacity:1;stroke:#56565e;stroke-opacity:1" />
    <path
       d="M 356.992 24.513 L 347.392 24.513 L 347.392 22.945 L 347.744 22.945 Q 348.32 22.945 348.864 22.801 Q 349.408 22.657 349.776 22.193 Q 350.144 21.729 350.144 20.769 L 350.144 3.809 Q 350.144 2.881 349.76 2.449 Q 349.376 2.017 348.832 1.889 Q 348.288 1.761 347.744 1.761 L 347.392 1.761 L 347.392 0.193 L 354.304 0.193 L 354.304 12.481 Q 354.304 12.897 354.288 13.489 Q 354.272 14.081 354.24 14.657 Q 354.208 15.233 354.192 15.649 Q 354.176 16.065 354.176 16.129 L 358.176 11.681 Q 358.656 11.137 358.912 10.753 Q 359.168 10.369 359.28 10.097 Q 359.392 9.825 359.392 9.633 Q 359.392 9.217 358.976 9.041 Q 358.56 8.865 357.76 8.865 L 357.76 7.361 L 365.44 7.361 L 365.44 8.865 Q 364.896 8.865 364.352 9.041 Q 363.808 9.217 363.264 9.569 Q 362.72 9.921 362.144 10.449 Q 361.568 10.977 360.928 11.681 L 358.944 13.953 L 363.2 20.289 Q 364.064 21.601 364.816 22.273 Q 365.568 22.945 366.496 22.945 L 366.592 22.945 L 366.592 24.513 L 366.144 24.513 Q 364.544 24.513 363.456 24.401 Q 362.368 24.289 361.632 23.953 Q 360.896 23.617 360.288 22.977 Q 359.68 22.337 359.008 21.281 L 356.128 16.705 L 354.304 18.145 L 354.304 20.833 Q 354.304 21.761 354.688 22.209 Q 355.072 22.657 355.616 22.801 Q 356.16 22.945 356.704 22.945 L 356.992 22.945 L 356.992 24.513 Z"
       id="21"
       style="fill:#56565e;fill-opacity:1;stroke:#56565e;stroke-opacity:1" />
    <path
       d="M 382.976 14.657 L 382.976 16.257 L 372.448 16.257 A 8.671 8.671 0 0 0 373.524 20.862 A 3.821 3.821 0 0 0 373.664 21.057 Q 374.816 22.561 377.024 22.561 Q 378.656 22.561 379.76 21.825 Q 380.864 21.089 381.408 20.097 Q 381.792 20.193 382.048 20.529 A 1.359 1.359 0 0 1 382.304 21.377 Q 382.304 22.113 381.664 22.929 Q 381.024 23.745 379.664 24.289 Q 378.304 24.833 376.16 24.833 Q 372.288 24.833 370.24 22.529 Q 368.192 20.225 368.192 16.033 A 10.589 10.589 0 0 1 369.835 9.714 A 6.384 6.384 0 0 1 370.192 9.265 Q 372.192 6.977 375.808 6.977 Q 379.168 6.977 381.072 8.913 Q 382.976 10.849 382.976 14.657 Z M 372.512 14.305 L 378.72 14.305 Q 378.72 11.841 378.064 10.385 Q 377.408 8.929 375.84 8.929 Q 374.336 8.929 373.472 10.305 Q 372.608 11.681 372.512 14.305 Z"
       id="22"
       style="fill:#56565e;fill-opacity:1;stroke:#56565e;stroke-opacity:1" />
    <path
       d="M 394.72 24.513 L 384.96 24.513 L 384.96 22.945 L 385.344 22.945 Q 386.016 22.945 386.56 22.769 Q 387.104 22.593 387.424 22.097 Q 387.744 21.601 387.744 20.673 L 387.744 3.809 Q 387.744 2.881 387.36 2.449 Q 386.976 2.017 386.432 1.889 Q 385.888 1.761 385.344 1.761 L 384.96 1.761 L 384.96 0.193 L 391.904 0.193 L 391.904 20.673 Q 391.904 21.601 392.224 22.097 Q 392.544 22.593 393.104 22.769 Q 393.664 22.945 394.304 22.945 L 394.72 22.945 L 394.72 24.513 Z"
       id="23"
       style="fill:#56565e;fill-opacity:1;stroke:#56565e;stroke-opacity:1" />
  </g>
</svg>
