<?xml version="1.0" encoding="UTF-8"?><svg xmlns="http://www.w3.org/2000/svg" version="1.1" width="279" height="44">
<path d="M4.95,37.5c0.561,5.645,7.591,5.358,11.597,4.324c9.797-2.528,18.739-9.309,26.732-15.168 c8.111-5.944,16.198-11.954,24.057-18.229c1.173-0.937,4.834-3.014,4.927-4.859c0.069-1.37-1.441-1.161-2.222-0.762 c-3.857,1.969-7.454,6.118-10.629,8.974c-6.704,6.028-14.011,12.746-18.07,20.94c-0.935,1.888-2.741,8.031,1.555,5.125 c2.906-1.966,5.379-4.765,7.909-7.167c4.433-4.21,8.95-8.316,13.685-12.186c-0.495-0.495-0.99-0.989-1.484-1.484 c-2.663,2.834-5.196,5.793-7.628,8.827c-2.727,3.4-6.359,7.506-6.932,11.998c-0.506,3.965,4.457,2.744,6.387,1.781 c6.062-3.025,11.036-8.552,16.158-12.872c-0.495-0.495-0.99-0.989-1.484-1.484c-2.793,3.212-5.57,6.596-7.672,10.308 c-2.159,3.813-0.105,5.481,3.725,4.065c9.139-3.378,17.531-9.378,24.14-16.474c0.154-0.165,6.475-7.425,2.063-6.482 c-3.696,0.789-7.833,6.292-10.217,8.849c-2.88,3.089-7.357,7.631-7.292,12.2c0.074,5.174,6.054,2.452,8.172,0.758 c3.504-2.802,6.612-6.061,9.838-9.17c1.378-1.327,6.166-6.35,7.363-6.263c-0.35-0.35-0.7-0.7-1.05-1.05 c0.04-0.8-1.421,1.158-2.048,1.783c-1.412,1.406-2.813,2.822-4.182,4.272c-2.338,2.479-5.352,5.442-6.257,8.842 c-0.917,3.445,3.137,3.44,5.334,3.284c6.947-0.494,9.941-6.019,16.104-7.918c-0.27-0.64-0.54-1.279-0.809-1.919 c-2.056,0.991-11.339,4.918-10.119,8.307c1.862,5.175,10.724-2.271,12.391-4.408c0.815-1.044-0.609-2.539-1.484-1.484 c-1.269,1.527-5.679,6.038-3.084,7.873c1.853,1.312,6.689-2.578,7.942-3.322c1.432-0.852,3.248-1.783,4.377-3.066 c-0.495-0.495-0.99-0.989-1.484-1.484c-1.175,1.462-5.203,6.347-1.537,7.255c3.59,0.89,9.842-4.707,12.559-6.606 c-0.479-0.479-0.958-0.957-1.437-1.437c-0.979,1.434-6.596,8.904-2.757,9.808c2.979,0.702,7.272-4.502,8.925-6.267 c2.481-2.648,4.706-5.664,6.646-8.73c0.645-1.02-0.819-2.116-1.649-1.272c-3.697,3.754-9.486,11.703-2.069,14.638 c5.338,2.111,16.063-6.35,8.341-9.408c-1.261-0.499-1.802,1.532-0.559,2.025c3.931,1.557-2.802,5.013-3.761,5.329 c-3.612,1.193-6.459-1.502-4.945-4.991c0.991-2.282,2.744-4.347,4.477-6.108c-0.549-0.424-1.099-0.848-1.649-1.272 c-2.984,4.719-6.602,9.318-11.083,12.693c-3.31,2.493-1.424,0.102-0.276-1.937c0.666-1.181,1.407-2.327,2.172-3.446 c0.584-0.854-0.581-2.035-1.437-1.437c-2.065,1.442-4.185,2.805-6.346,4.101c-0.447,0.269-4.68,2.609-4.118,1.46 c0.506-1.037,1.267-2.017,1.986-2.912c0.831-1.033-0.576-2.517-1.484-1.484c-1.967,2.233-5.517,3.676-8.038,5.086 c-1.709,0.955-1.687,1.63-1.187,0.593c0.299-0.621,0.72-1.196,1.105-1.765c0.57-0.843,1.204-1.646,1.854-2.43 c-0.495-0.495-0.99-0.989-1.484-1.484c-1.127,1.444-2.572,2.524-4.078,3.555c-1.274,0.873-6.47,3.134-3.359,0.411 c2.197-1.924,5.091-3.305,7.709-4.567c1.082-0.521,0.316-2.266-0.809-1.919c-4.657,1.436-7.377,5.458-11.858,7.099 c-0.567,0.208-7.26,1.879-6.996,0.119c0.225-1.499,1.547-3.019,2.439-4.164c2.124-2.727,4.61-5.18,7.051-7.617 c0.857-0.856,3.002-2.306,3.071-3.675c0.03-0.603-0.502-1.011-1.05-1.05c-1.88-0.137-4.85,3.236-6.015,4.252 c-4.518,3.936-8.399,8.625-13.227,12.201c-1.849,1.369-4.678,1.719-3.761-1.328c0.504-1.677,1.675-3.219,2.683-4.62 c2.583-3.593,5.821-6.786,9.098-9.74c1.077-0.972,2.193-1.914,3.401-2.719c1.495-0.996-1.552,0.878-0.532-1.202 c-0.468,0.955-1.392,1.923-2.017,2.688C84.483,26.32,78.162,30.857,71.62,34.506c-2.63,1.467-5.433,2.8-8.313,3.687 c-0.44,0.136,1.693-3.758,1.944-4.131c1.728-2.566,3.713-4.985,5.742-7.319c0.895-1.028-0.451-2.356-1.484-1.484 c-3.556,2.999-6.984,6.143-10.618,9.049c-1.943,1.554-4.047,3.113-6.361,4.074c-3.437,1.427-0.982-3.315-0.437-4.288 c3.216-5.724,7.919-10.831,12.4-15.601c0.945-1.005-0.453-2.327-1.484-1.484c-4.737,3.869-9.246,7.981-13.686,12.185 c-1.518,1.438-3.028,2.882-4.558,4.307c-0.677,0.632-1.37,1.244-2.071,1.85c-1.779,1.537-0.493,0.366-0.705,1.336 c1.797-8.221,10.509-15.543,16.318-21.034c3.623-3.425,8.965-8.949,12.729-10.996c0.504-0.275-0.289-1.893-1.731-0.588 c-4.364,3.947-9.225,7.402-13.91,10.946c-9.75,7.373-19.441,15.061-30.211,20.912C22.358,37.459,7.73,44.343,7.05,37.5 C6.917,36.165,4.816,36.152,4.95,37.5L4.95,37.5z"/>
<path d="M76,18.8c0.638-0.074,1.263-0.246,1.759-0.678c0.969-0.843,0.485-2.081-0.267-2.864 c-0.938-0.979-2.422,0.508-1.484,1.484c0.123,0.129,0.165,0.179,0.228,0.282c-0.036-0.107-0.038-0.108-0.004-0.003 c-0.025-0.094-0.022-0.188,0.009-0.279c-0.027,0.18,0.209-0.276,0.081-0.147c0.196-0.198,0.032-0.029-0.059,0.02 c-0.165,0.087,0.222-0.075-0.055,0.016c-0.074,0.024-0.149,0.043-0.226,0.061c-0.128,0.03-0.486,0.068,0.018,0.01 c-0.568,0.066-1.05,0.427-1.05,1.05C74.95,18.271,75.43,18.867,76,18.8L76,18.8z"/>
<path d="M182.221,18.487c-3.564,1.21-6.707,4.894-9.214,7.459c-3.479,3.561-6.43,7.616-10.075,11.016 c-0.997,0.93-1.27,1.799-1.249,0.423c0.011-0.713,0.102-1.422,0.117-2.135c0.029-1.355-2.071-1.353-2.1,0 c-0.083,3.869,0.739,6.609,4.717,3.197c4.862-4.171,8.505-9.701,13.206-14.086c1.412-1.316,3.371-3.243,5.156-3.849 C184.054,20.08,183.507,18.051,182.221,18.487L182.221,18.487z"/>
<path d="M178.25,10.55c-0.126-0.009-0.122,1.133-0.41,1.938c-2.032,5.688-7.383,10.679-11.333,15.02 c0.549,0.424,1.099,0.848,1.649,1.272c3.632-5.188,8.693-10.229,14.7-12.453c5.319-1.968,10.703,1.084,14.313,4.89 c1.566,1.651,2.853,2.867,5.246,2.795c2.727-0.082,11.051-3.484,7.757-7.457c-2.974-3.587-10.119-4.744-14.203-2.711 c-1.212,0.604-0.148,2.414,1.061,1.813c2.553-1.271,5.773-0.543,8.351,0.274c1.532,0.486,5.044,1.958,1.862,4.121 c-1.538,1.046-4.006,2.105-5.942,1.826c-1.854-0.268-4.066-3.627-5.504-4.752c-2.117-1.656-5.21-3.235-7.932-3.448 c-8.958-0.7-16.772,7.259-21.522,14.042c-0.688,0.983,0.853,2.147,1.649,1.272c0.546-0.6,18.278-19.973,10.258-20.542 C176.898,8.354,176.907,10.455,178.25,10.55L178.25,10.55z"/>
<path d="M184.758,23.008c-1.937,2.307-13.819,15.001-9.817,17.539c1.113,0.705,2.895-0.397,3.839-0.891 c4.412-2.302,8.828-4.721,12.909-7.574c3.426-2.396,6.344-5.38,9.029-8.563c0.874-1.035,2.781-2.811,2.833-4.318 c0.013-0.36-0.207-0.731-0.521-0.906c-1.823-1.021-5.238,3.475-6.212,4.449c-3.536,3.54-7.046,7.277-9.872,11.42 c-1.159,1.698-2.186,5.116,1.047,5.242c7.418,0.288,16.15-6.35,22.037-9.999c-0.425-0.549-0.849-1.099-1.272-1.648 c-2.565,2.533-9.043,7.426-9.074,11.35c-0.039,4.979,23.827-12.713,13.324-0.35c-0.746,0.878,0.195,2.284,1.272,1.648 c3.091-1.825,6.284-3.637,9.651-4.896c2.313-0.865-0.384,0.983-0.384,2.827c0,1.003,0.919,1.656,1.856,1.52 c2.607-0.38,4.946-2.304,7.23-3.488c0.381-0.197-0.745,0.758-0.949,1.498c-0.103,0.374-0.097,0.909,0.104,1.253 c2.089,3.565,11.672-3.629,13.24-4.713c-0.425-0.549-0.849-1.099-1.272-1.648c-2.412,2.045-6.369,6.812-1.555,8.514 c3.259,1.152,6.295-5.881,4.289-8.014c-0.154,0.585-0.309,1.17-0.463,1.755c1.42-0.414,10.35-1.83,10.458-2.542 c-0.276,1.815-1.737,3.484-2.082,5.357c-0.276,1.507,0.597,2.605,2.156,2.262c4.245-0.936,8.664-7.024,11.431-9.848 c-0.495-0.495-0.989-0.989-1.484-1.484c-2.125,2.195-4.336,4.631-5.513,7.481c-1.622,3.924,3.984,2.881,5.74,2.157 c7.286-3,13.43-15.943,1.515-16.196c-1.355-0.029-1.353,2.071,0,2.1c10.102,0.215,1.785,10.483-2.921,12.422 c-4.248,1.749-1.016-2.209,0.132-3.636c0.794-0.987,1.65-1.934,2.531-2.844c0.941-0.973-0.535-2.453-1.484-1.484 c-2.396,2.444-4.813,4.862-7.391,7.117c-0.706,0.619-1.45,1.188-2.227,1.716c-0.977,0.663-0.454,0.764-0.405,0.496 c0.313-1.697,1.279-3.263,1.937-4.841c1.96-4.705-11.551-0.666-12.951-0.259c-0.773,0.226-1.006,1.178-0.463,1.755 c0.03,0.686-0.08,1.346-0.332,1.98c-0.638,2.157-2.993,1.415-1.379-0.566c0.569-0.7,1.258-1.331,1.945-1.914 c0.908-0.77-0.293-2.325-1.272-1.648c-1.864,1.288-3.758,2.459-5.755,3.532c-1.123,0.604-4.985,3.079-3.753,0.94 c0.459-0.797,0.917-2.013,0.147-2.782c-0.825-0.825-2.2-0.085-3.035,0.271c-1.619,0.691-3.114,1.743-4.666,2.573 c-2.962,1.586-0.382,0.015,0.096-1.839c1.45-5.631-12.408,2.491-13.784,3.304c0.425,0.549,0.849,1.099,1.272,1.648 c1.2-1.412,5.454-5.604,3.53-7.794c-2.029-2.312-6.819,0.679-8.796,1.649c-2.64,1.295-5.074,3.241-7.877,4.174 c0.329,0.674,0.575,0.724,0.737,0.147c0.188-0.304,0.388-0.6,0.6-0.888c0.61-0.866,1.331-1.665,2.026-2.464 c1.755-2.018,3.627-3.945,5.529-5.825c0.845-0.834-0.249-2.283-1.272-1.648c-5.57,3.453-11.31,6.935-17.528,9.098 c-0.999,0.348-4.307,1.472-3.255-0.537c0.796-1.521,1.967-2.871,3.047-4.191c2.38-2.905,4.979-5.642,7.633-8.298 c0.927-0.928,1.878-1.831,2.858-2.702c1.533-1.364-0.059-2.09-1.189-0.565c-3.562,4.8-7.964,8.741-13,11.928 c-2.291,1.449-4.697,2.722-7.075,4.02c-1.139,0.623-2.273,1.255-3.424,1.855c-1.231,0.643-0.859,0.517-0.363-0.529 c2.279-4.809,6.17-9.128,9.569-13.179C187.106,23.463,185.629,21.969,184.758,23.008L184.758,23.008z"/>
</svg>